# xmcd
#
# Track frame offsets:
#	150
#	16152
#	39277
#	55135
#	71390
#	94306
#	112419
#	139204
#	158548
#	176649
#	196171
#	209918
#	221518
#	244580
#	261208
#	282240
#
# Disc length: 4069 seconds
#
# Revision: 1
# Processed by: cddbd v1.5.2PL0 Copyright (c) Steve Scherf et al.
# Submitted via: audiograbber 1.83.01
#
DISCID=ec0fe310
DTITLE=Free - Rock Legends
DYEAR=2007
DGENRE=Blues
TTITLE0=01. Walk In My Shadow (1968)
TTITLE1=02. The Hunter (live) (1970)
TTITLE2=03. I'll Be Creepin' (original version) (1969)
TTITLE3=04. Mouthful Of Grass (1969)
TTITLE4=05. Mourning Sad Morning (alternative version)
TTITLE5=06. Fire And Water (1970)
TTITLE6=07. Mr. Big (1970)
TTITLE7=08. All Right Now (single version) (1970)
TTITLE8=09. On My Way (1970)
TTITLE9=10. Ride On A Pony (1970)
TTITLE10=11. Soon I Will Be Gone (1970)
TTITLE11=12. Little Bit Of Love (1972)
TTITLE12=13. Goodbye (1972)
TTITLE13=14. Wishing Well (1972)
TTITLE14=15. Come Together In The Morning (1972)
TTITLE15=16. Seven Angels (1972)
EXTD=Track dates provided.
EXTT0=
EXTT1=
EXTT2=
EXTT3=
EXTT4=
EXTT5=
EXTT6=
EXTT7=
EXTT8=
EXTT9=
EXTT10=
EXTT11=
EXTT12=
EXTT13=
EXTT14=
EXTT15=
PLAYORDER=
